<svg xmlns="http://www.w3.org/2000/svg" version="1.1" xmlns:xlink="http://www.w3.org/1999/xlink" width="200" height="200"><svg xmlns="http://www.w3.org/2000/svg" version="1.1" xmlns:xlink="http://www.w3.org/1999/xlink" viewBox="0 0 200 200"><rect width="200" height="200" fill="url('#gradient')"></rect><defs><linearGradient id="SvgjsLinearGradient1001" gradientTransform="rotate(45 0.5 0.5)"><stop offset="0%" stop-color="#ffffff"></stop><stop offset="100%" stop-color="#ffffff"></stop></linearGradient></defs><g><g fill="#0a5095" transform="matrix(2.326391518364256,0,0,2.326391518364256,6.955852289896761,117.22915603427533)" stroke="#085f91" stroke-width="0.2"><path d="M4.73-14.22L4.73 0L1.31 0L1.31-14.22L4.73-14.22ZM6.89-10.57L9.98-10.57L10.09-9.33Q11.18-10.76 13.11-10.76L13.11-10.76Q14.76-10.76 15.57-9.78Q16.39-8.79 16.42-6.81L16.42-6.81L16.42 0L13.12 0L13.12-6.67Q13.12-7.47 12.79-7.85Q12.47-8.22 11.62-8.22L11.62-8.22Q10.65-8.22 10.19-7.46L10.19-7.46L10.19 0L6.89 0L6.89-10.57ZM18.17-10.57L21.26-10.57L21.37-9.33Q22.46-10.76 24.38-10.76L24.38-10.76Q26.04-10.76 26.85-9.78Q27.67-8.79 27.70-6.81L27.70-6.81L27.70 0L24.39 0L24.39-6.67Q24.39-7.47 24.07-7.85Q23.75-8.22 22.90-8.22L22.90-8.22Q21.93-8.22 21.46-7.46L21.46-7.46L21.46 0L18.17 0L18.17-10.57ZM29.11-4.82L29.10-5.38Q29.10-6.96 29.72-8.20Q30.33-9.43 31.48-10.10Q32.64-10.76 34.19-10.76L34.19-10.76Q36.56-10.76 37.93-9.29Q39.30-7.82 39.30-5.29L39.30-5.29L39.30-5.18Q39.30-2.71 37.92-1.25Q36.55 0.20 34.21 0.20L34.21 0.20Q31.95 0.20 30.59-1.16Q29.22-2.51 29.11-4.82L29.11-4.82ZM32.40-5.77L32.39-5.18Q32.39-3.71 32.85-3.03Q33.31-2.34 34.21-2.34L34.21-2.34Q35.97-2.34 36.01-5.05L36.01-5.05L36.01-5.38Q36.01-8.22 34.19-8.22L34.19-8.22Q32.54-8.22 32.40-5.77L32.40-5.77ZM44.33-14.22L44.33-2.64L50.29-2.64L50.29 0L40.90 0L40.90-14.22L44.33-14.22ZM55.06-10.57L55.06 0L51.76 0L51.76-10.57L55.06-10.57ZM51.56-13.29L51.56-13.29Q51.56-13.99 52.07-14.44Q52.58-14.89 53.39-14.89Q54.20-14.89 54.71-14.44Q55.21-13.99 55.21-13.29Q55.21-12.59 54.71-12.14Q54.20-11.69 53.39-11.69Q52.58-11.69 52.07-12.14Q51.56-12.59 51.56-13.29ZM57.02-10.57L60.11-10.57L60.21-9.33Q61.31-10.76 63.23-10.76L63.23-10.76Q64.88-10.76 65.70-9.78Q66.51-8.79 66.54-6.81L66.54-6.81L66.54 0L63.24 0L63.24-6.67Q63.24-7.47 62.92-7.85Q62.60-8.22 61.75-8.22L61.75-8.22Q60.78-8.22 60.31-7.46L60.31-7.46L60.31 0L57.02 0L57.02-10.57ZM74.91 0L72.61-3.94L71.68-3.01L71.68 0L68.39 0L68.39-15.01L71.68-15.01L71.68-7.04L72.01-7.48L74.49-10.57L78.44-10.57L74.74-6.22L78.68 0L74.91 0Z"></path></g></g></svg><style>@media (prefers-color-scheme: light) { :root { filter: none; } }
@media (prefers-color-scheme: dark) { :root { filter: none; } }
</style></svg>